HIERARCHY
ROOT root
{
	OFFSET	0	13.1	24.9
	CHANNELS 6  Xposition Yposition Zposition Xrotation Yrotation Zrotation
	JOINT spine_1
	{
		OFFSET	0	9.99999	0
		CHANNELS 3  Xrotation Yrotation Zrotation
		JOINT spine_2
		{
			OFFSET	0	112	-10
			CHANNELS 3  Xrotation Yrotation Zrotation
			JOINT spine_3
			{
				OFFSET	0	206.5	19.3
				CHANNELS 3  Xrotation Yrotation Zrotation
				JOINT spine_4
				{
					OFFSET	0	110.4	14.6
					CHANNELS 3  Xrotation Yrotation Zrotation
					JOINT neck_1
					{
						OFFSET	0	71.8	-50.3
						CHANNELS 3  Xrotation Yrotation Zrotation
						JOINT neck_2
						{
							OFFSET	0	86.2	-25.8
							CHANNELS 3  Xrotation Yrotation Zrotation
							JOINT head_ee
							{
								OFFSET	0	179.8	-8.7
								CHANNELS 3  Xrotation Yrotation Zrotation
								End Site
								{
									OFFSET	1	0	0
								}
							}
						}
					}
					JOINT left_clavicle
					{
						OFFSET	-43.2	22.4	-70.8
						CHANNELS 3  Xrotation Yrotation Zrotation
						JOINT left_shoulder
						{
							OFFSET	-93.9	-5.79999	48.7
							CHANNELS 3  Xrotation Yrotation Zrotation
							JOINT left_elbow
							{
								OFFSET	-291.4	-30.8	15.2
								CHANNELS 3  Xrotation Yrotation Zrotation
								JOINT left_lowarm_twist
								{
									OFFSET	-110.7	-3.89999	13.6
									CHANNELS 3  Xrotation Yrotation Zrotation
									JOINT left_hand
									{
										OFFSET	-110.7	-3.89999	13.6
										CHANNELS 3  Xrotation Yrotation Zrotation
										JOINT left_ee
										{
											OFFSET	-80.8	-5.10001	12.1
											CHANNELS 3  Xrotation Yrotation Zrotation
											End Site
											{
												OFFSET	1	0	0
											}
										}
									}
								}
							}
						}
					}
					JOINT right_clavicle
					{
						OFFSET	43.2	22.4	-70.8
						CHANNELS 3  Xrotation Yrotation Zrotation
						JOINT right_shoulder
						{
							OFFSET	93.9	-5.79999	48.7
							CHANNELS 3  Xrotation Yrotation Zrotation
							JOINT right_elbow
							{
								OFFSET	291.4	-30.8	15.2
								CHANNELS 3  Xrotation Yrotation Zrotation
								JOINT right_lowarm_twist
								{
									OFFSET	110.7	-3.89999	13.6
									CHANNELS 3  Xrotation Yrotation Zrotation
									JOINT right_hand
									{
										OFFSET	110.7	-3.89999	13.6
										CHANNELS 3  Xrotation Yrotation Zrotation
										JOINT right_ee
										{
											OFFSET	80.8	-5.10001	12.1
											CHANNELS 3  Xrotation Yrotation Zrotation
											End Site
											{
												OFFSET	1	0	0
											}
										}
									}
								}
							}
						}
					}
				}
			}
		}
	}
	JOINT left_hip
	{
		OFFSET	-82.8	-127.5	0.300001
		CHANNELS 3  Xrotation Yrotation Zrotation
		JOINT left_knee
		{
			OFFSET	-28.2	-396.7	2.2
			CHANNELS 3  Xrotation Yrotation Zrotation
			JOINT left_ankle
			{
				OFFSET	-11.7	-411.3	35.4
				CHANNELS 3  Xrotation Yrotation Zrotation
				JOINT left_toes
				{
					OFFSET	0	-60	-88.6
					CHANNELS 3  Xrotation Yrotation Zrotation
					JOINT left_foot_ee
					{
						OFFSET	-22.5	-16.5	-42.2
						CHANNELS 3  Xrotation Yrotation Zrotation
						End Site
						{
							OFFSET	1	0	0
						}
					}
				}
			}
		}
	}
	JOINT right_hip
	{
		OFFSET	82.8	-127.5	0.300001
		CHANNELS 3  Xrotation Yrotation Zrotation
		JOINT right_knee
		{
			OFFSET	28.2	-396.7	2.2
			CHANNELS 3  Xrotation Yrotation Zrotation
			JOINT right_ankle
			{
				OFFSET	11.7	-411.3	35.4
				CHANNELS 3  Xrotation Yrotation Zrotation
				JOINT right_toes
				{
					OFFSET	0	-60	-88.6
					CHANNELS 3  Xrotation Yrotation Zrotation
					JOINT right_foot_ee
					{
						OFFSET	22.5	-16.5	-42.2
						CHANNELS 3  Xrotation Yrotation Zrotation
						End Site
						{
							OFFSET	1	0	0
						}
					}
				}
			}
		}
	}
}
MOTION
Frames: 11
Frame Time: 0.02
2555.64 732.856 -654.045 164.997 -67.1973 177.615 -1.61524 -0.483486 -3.89463 -1.60683 -0.234876 -3.91745 -1.58299 0.701545 -3.86136 -1.60378 0.0834004 -3.92359 -27.9163 11.2526 11.6626 -28.2423 17.3506 17.1726 -0.0 0.0 -0.0 10.4759 15.3781 19.0083 -2.00524 -22.8746 55.2625 1.33524 -33.4806 0.401633 -53.5396 -4.492 4.8551 -1.24974 16.0687 -1.13018 -0.0 0.0 -0.0 3.56784 14.8871 -5.80837 -7.74623 15.925 -61.802 0.677314 18.5478 -0.110599 69.5919 2.69813 7.91781 0.698466 -28.656 -15.1137 0.0 0.0 0.0 13.5923 46.0176 -22.0337 0.114946 -0.00475048 -0.0169998 20.1851 -18.6703 -3.0566 -2.34361 0.0 0.0 -0.0 0.0 -0.0 14.232 8.6575 -11.5045 -39.7358 0.450045 -5.96127 21.9247 -14.1088 2.98965 6.177 -0.0 -0.0 0.0 0.0 0.0 
2568.42 736.586 -658.28 166.918 -66.9945 179.196 -1.49122 -0.534374 -3.99414 -1.48239 -0.279343 -4.01999 -1.45479 0.67374 -3.97304 -1.47681 0.0383477 -4.02949 -27.7024 11.5017 12.6816 -27.9519 17.4263 18.1882 -0.0 0.0 -0.0 10.3414 14.4377 18.9127 -1.07865 -23.3997 55.5407 1.48945 -36.4187 0.490001 -54.0386 -4.55206 4.87727 -1.60043 16.2922 -3.1806 -0.0 0.0 -0.0 3.35754 13.8921 -5.4486 -8.90601 15.0789 -61.5983 0.555403 15.3834 -0.0750119 69.328 2.67094 7.89763 0.520884 -28.2448 -13.987 0.0 0.0 0.0 13.2356 47.1979 -21.1444 0.215556 -0.00893632 -0.0318718 18.5623 -18.7054 -2.83591 -3.16769 0.0 0.0 -0.0 0.0 -0.0 15.7031 8.95852 -11.7022 -36.6321 0.266523 -5.52102 20.7178 -15.5793 2.85064 4.69347 -0.0 -0.0 0.0 0.0 0.0 
2578.2 733.046 -658.136 167.342 -67.2385 179.789 -1.50474 -0.571689 -4.11305 -1.49538 -0.309036 -4.14102 -1.46447 0.674032 -4.09754 -1.48789 0.0190232 -4.15248 -29.2656 11.3243 14.4395 -29.3823 16.7784 20.0721 -0.0 0.0 -0.0 10.0424 13.9458 18.4512 1.57426 -22.7506 55.7344 1.59098 -38.2397 0.551576 -54.8601 -4.65134 4.91264 -1.54097 15.4512 -3.20573 -0.0 0.0 -0.0 3.10189 14.3838 -4.86521 -9.17079 13.7734 -61.9017 0.350945 9.86239 -0.0302792 69.7692 2.71645 7.93129 0.233912 -28.3203 -12.4061 0.0 0.0 0.0 8.6494 47.8657 -18.7411 2.70389 -0.120753 -0.397283 19.9586 -20.2914 -3.06899 -2.90501 0.0 0.0 -0.0 0.0 -0.0 18.8171 10.3825 -13.5987 -31.6924 0.0244706 -4.80211 13.0201 -20.6991 1.87872 4.9404 -0.0 -0.0 0.0 0.0 0.0 
2596.72 731.359 -659.412 167.98 -67.2865 179.951 -1.55554 -0.621325 -4.08621 -1.54632 -0.360276 -4.11739 -1.51169 0.621903 -4.08612 -1.53498 -0.0306556 -4.13298 -27.3957 12.1611 14.7488 -27.5019 17.8847 20.3536 -0.0 0.0 -0.0 10.3712 13.5742 19.0898 3.60972 -21.8001 55.8949 1.67574 -39.6933 0.604885 -55.786 -4.76383 4.95079 -1.66151 15.3915 -3.97906 -0.0 0.0 -0.0 2.97756 14.231 -4.61592 -9.67709 11.7035 -62.4637 0.189491 5.36269 -0.00887441 69.2193 2.65976 7.88929 -0.271324 -28.9713 -9.84847 0.0 0.0 0.0 5.72786 47.9368 -16.7443 4.34393 -0.2031 -0.635382 20.9577 -22.7919 -3.28174 -3.33157 0.0 0.0 -0.0 0.0 -0.0 22.2271 10.9829 -15.4331 -27.8476 -0.12047 -4.22997 7.12187 -24.0315 1.06293 5.43678 -0.0 -0.0 0.0 0.0 0.0 
2614.12 732.287 -662.375 167.578 -66.7754 179.126 -1.58953 -0.600498 -4.3612 -1.57901 -0.32204 -4.3905 -1.54447 0.726301 -4.34206 -1.57077 0.0321312 -4.40215 -25.0605 13.8307 13.9926 -25.3749 20.8803 19.9844 -0.0 0.0 -0.0 10.2523 13.337 18.909 3.98322 -21.282 56.8248 1.85667 -42.6017 0.72397 -56.3927 -4.83785 4.97479 -1.78349 14.439 -5.1884 -0.0 0.0 -0.0 2.66809 14.1612 -3.96832 -12.3105 10.244 -61.7526 0.186811 5.28726 -0.00862556 69.4441 2.68289 7.90653 -1.00359 -28.9834 -5.88375 0.0 0.0 0.0 5.17743 49.6133 -16.1696 3.52287 -0.16102 -0.51647 22.1478 -22.9215 -3.44897 -3.87871 0.0 0.0 -0.0 0.0 -0.0 23.621 11.9237 -15.2468 -26.1783 -0.171372 -3.97885 2.36659 -25.1525 0.359708 5.87116 -0.0 -0.0 0.0 0.0 0.0 
2633.37 733.762 -665.536 166.864 -66.4382 177.985 -1.5743 -0.717057 -4.3927 -1.56368 -0.436366 -4.42933 -1.51965 0.622201 -4.40711 -1.54674 -0.080913 -4.44999 -24.2679 14.1476 14.4087 -24.5228 21.1387 20.3019 -0.0 0.0 -0.0 10.3014 13.3262 18.9989 4.34278 -19.8205 57.1804 2.01445 -44.9346 0.833136 -56.8812 -4.89763 4.99355 -1.89088 14.0944 -6.02569 -0.0 0.0 -0.0 2.48611 14.1186 -3.58791 -13.8286 8.71052 -61.195 0.181538 5.13882 -0.00814644 69.8864 2.72859 7.94018 -1.38315 -29.0206 -3.85875 0.0 0.0 0.0 2.527 48.7119 -14.8056 3.54733 -0.16225 -0.520021 20.6899 -25.6096 -3.34256 -5.2155 0.0 0.0 -0.0 0.0 -0.0 24.9298 13.8639 -14.7641 -24.6338 -0.211931 -3.74529 0.017447 -25.3654 0.00266903 5.97658 -0.0 -0.0 0.0 0.0 0.0 
2648.49 727.307 -671.689 168.397 -65.7128 179.11 -1.50852 -0.613339 -4.47766 -1.49742 -0.327467 -4.50753 -1.46152 0.742333 -4.45813 -1.48924 0.0296868 -4.51929 -19.6932 16.0066 14.3763 -19.8569 23.5768 19.9156 -0.0 0.0 -0.0 10.3433 13.1304 19.1013 5.85013 -19.5033 57.9969 2.19859 -47.4363 0.966039 -57.4069 -4.96214 5.01316 -1.9545 14.0997 -6.42223 -0.0 0.0 -0.0 1.96225 14.6181 -2.43258 -15.4263 6.12949 -61.386 0.256432 7.23962 -0.0162224 69.8456 2.72436 7.93709 -1.95686 -28.9263 -0.740589 0.0 0.0 0.0 0.762815 51.5427 -12.2428 3.30133 -0.149959 -0.484285 27.7281 -25.5037 -4.28279 -6.23206 0.0 0.0 -0.0 0.0 -0.0 24.4677 15.0888 -13.6001 -18.9854 -0.306332 -2.88405 -1.0455 -21.9407 -0.15772 6.41117 -0.0 -0.0 0.0 0.0 0.0 
2662.95 723.255 -672.768 169.859 -65.6257 179.731 -1.43584 -0.592137 -4.55483 -1.42436 -0.301413 -4.5832 -1.39007 0.77994 -4.52651 -1.41865 0.0560593 -4.59274 -17.6846 17.0161 13.9627 -17.8515 25.1783 19.4336 -0.0 0.0 -0.0 10.4093 12.7427 19.2743 7.22188 -19.3123 58.518 2.33285 -49.1222 1.06626 -57.7882 -5.00904 5.02701 -1.98904 13.6435 -6.86129 -0.0 0.0 -0.0 1.83652 13.9255 -2.23546 -16.8026 5.48797 -61.2856 0.238406 6.73556 -0.0140294 69.3733 2.6756 7.90111 -2.38464 -28.6958 1.66891 0.0 0.0 0.0 -1.78136 51.9726 -9.37167 4.15729 -0.193385 -0.608404 29.5511 -25.1049 -4.48875 -7.51434 0.0 0.0 -0.0 0.0 -0.0 24.9678 16.1511 -12.5596 -14.9164 -0.321543 -2.26006 -3.5405 -21.4152 -0.535626 5.61346 -0.0 -0.0 0.0 0.0 0.0 
2677.72 720.814 -672.535 169.577 -65.7263 179.338 -1.56911 -0.561134 -4.54553 -1.55766 -0.271062 -4.57195 -1.52559 0.817581 -4.50655 -1.55391 0.0963726 -4.57895 -17.3422 17.4798 14.125 -17.5137 25.8876 19.6727 -0.0 0.0 -0.0 10.1907 12.3834 18.9244 7.89229 -18.8359 59.4106 2.60731 -52.2426 1.27868 -58.2233 -5.06266 5.04244 -2.21403 13.5511 -8.32823 -0.0 0.0 -0.0 1.86363 13.6983 -2.31513 -17.7244 4.25578 -61.0434 0.243718 6.88421 -0.0146592 69.1932 2.65709 7.88728 -2.92152 -28.6314 4.59596 0.0 0.0 0.0 -2.76788 50.5982 -9.49193 2.83468 -0.127068 -0.416355 32.2655 -24.8164 -4.79255 -7.62951 0.0 0.0 -0.0 0.0 -0.0 25.9711 17.0351 -11.7321 -9.69255 -0.276119 -1.4601 -4.05496 -16.3396 -0.604207 4.06775 -0.0 -0.0 0.0 0.0 0.0 
2689.96 720.355 -668.656 170.432 -66.885 179.723 -1.66428 -0.60541 -4.55441 -1.6528 -0.314685 -4.58363 -1.61672 0.785046 -4.52697 -1.64531 0.0610307 -4.59399 -17.5469 17.3946 13.9446 -17.7498 25.8819 19.5366 -0.0 0.0 -0.0 10.022 12.2558 18.6339 8.10555 -18.682 59.5743 2.85657 -54.7413 1.47907 -58.4959 -5.09631 5.0519 -2.36453 13.4532 -9.33228 -0.0 0.0 -0.0 1.99876 13.0443 -2.66359 -18.444 3.41601 -61.3748 0.236862 6.69233 -0.0138489 69.0539 2.64279 7.87655 -3.29684 -28.5593 6.67005 0.0 0.0 0.0 -3.27793 50.444 -9.53948 3.64331 -0.167087 -0.533951 33.4305 -23.4717 -4.85747 -8.0598 0.0 0.0 -0.0 0.0 -0.0 27.2399 18.5208 -11.6771 -5.99036 -0.199881 -0.897197 -4.76222 -12.7379 -0.705868 2.89585 -0.0 -0.0 0.0 0.0 0.0 
2699.93 718.927 -667.758 169.995 -67.6369 179.344 -1.71809 -0.732143 -4.51404 -1.70687 -0.443725 -4.55137 -1.66033 0.655074 -4.52584 -1.6889 -0.0671437 -4.57241 -18.2083 17.1556 13.7745 -18.4654 25.7009 19.475 -0.0 0.0 -0.0 10.1592 12.0185 18.9136 8.5759 -18.6613 59.8745 3.04511 -56.4468 1.63465 -59.403 -5.20861 5.08221 -2.50078 13.3786 -10.238 -0.0 0.0 -0.0 2.12234 12.1057 -3.01295 -18.8009 3.17394 -61.2794 0.2499 7.05708 -0.0154094 68.1993 2.55569 7.80994 -3.62531 -28.7657 8.3347 0.0 0.0 0.0 -2.64141 50.7388 -9.68658 2.60965 -0.116229 -0.383533 33.3617 -23.0821 -4.83184 -8.8946 0.0 0.0 -0.0 0.0 -0.0 27.6906 18.5254 -11.3525 -3.66476 -0.133446 -0.5465 -4.49957 -8.75375 -0.664854 2.21747 -0.0 -0.0 0.0 0.0 0.0 
